<svg width="37" height="39" viewBox="0 0 37 39" fill="none" xmlns="http://www.w3.org/2000/svg">
<path d="M18.5 0C13.5562 0 9.54839 3.97343 9.54839 8.8749C9.54839 13.7764 13.5562 17.7498 18.5 17.7498C23.4438 17.7498 27.4516 13.7764 27.4516 8.8749C27.4516 3.97343 23.4438 0 18.5 0Z" fill="white"/>
<path d="M8.95161 22.4831C4.00777 22.4831 0 26.4565 0 31.358V34.1702C0 35.9529 1.30308 37.4728 3.07762 37.76C13.2916 39.4133 23.7084 39.4133 33.9224 37.76C35.6969 37.4728 37 35.9529 37 34.1702V31.358C37 26.4565 32.9922 22.4831 28.0484 22.4831H27.2347C26.7943 22.4831 26.3567 22.5521 25.938 22.6877L23.872 23.3565C20.3813 24.4865 16.6187 24.4865 13.128 23.3565L11.062 22.6877C10.6433 22.5521 10.2057 22.4831 9.7653 22.4831H8.95161Z" fill="white"/>
</svg>
