<svg width="10" height="6" viewBox="0 0 10 6" fill="none" xmlns="http://www.w3.org/2000/svg">
<path d="M1.76398 0.67646L1.75839 0.671635L1.75246 0.667235C1.51858 0.493697 1.18697 0.51278 0.974874 0.724874C0.741709 0.95804 0.741709 1.33608 0.974874 1.56924L4.68076 5.27513L4.68594 5.28031L4.69148 5.28509L4.73602 5.32354L4.74161 5.32837L4.74754 5.33277C4.98142 5.5063 5.31303 5.48722 5.52513 5.27513L9.23101 1.56924L9.23619 1.56406L9.24098 1.55851L9.27942 1.51398L9.28425 1.50839L9.28865 1.50246C9.46218 1.26858 9.4431 0.93697 9.23101 0.724875L9.22583 0.719693L9.22028 0.714904L9.17575 0.676459L9.17016 0.671635L9.16423 0.667235C8.93034 0.493698 8.59874 0.51278 8.38664 0.724871C8.38664 0.724872 8.38664 0.724873 8.38664 0.724875L5.10294 4.0084L1.81924 0.724871L1.81406 0.719691L1.80852 0.714905L1.76398 0.67646Z" fill="white" stroke="white" stroke-width="0.4"/>
</svg>
