<svg width="54" height="46" viewBox="0 0 54 46" fill="none" xmlns="http://www.w3.org/2000/svg">
<path d="M51.7394 0.0189673C50.2559 -0.18157 48.8393 1.2311 48.5809 3.16518C48.4206 4.37286 48.7458 5.50033 49.3739 6.22672L48.3047 10.6608C48.3047 10.6608 46.6698 21.1378 38.4107 23.2056C31.8087 24.8589 29.4165 12.7687 28.8374 9.03424C30.0937 8.41035 30.9623 7.118 30.9623 5.61619C30.9623 3.50832 29.2562 1.80152 27.1491 1.80152C25.042 1.80152 23.3358 3.50832 23.3358 5.61619C23.3358 7.12691 24.2178 8.43263 25.4963 9.04761C25.0375 12.733 23.015 24.4222 15.8874 23.2011C8.65287 21.9578 5.49444 9.76955 4.76386 6.45399C5.63254 5.74097 6.11811 4.48427 5.93992 3.13398C5.68155 1.19545 4.14911 -0.194939 2.51866 0.0234238C0.888217 0.241787 -0.221019 1.98869 0.037357 3.92277C0.224457 5.33098 1.08868 6.44954 2.17119 6.8729L7.83765 42.0917C7.83765 42.0917 12.7824 46 27.1491 46C41.5157 46 46.4605 42.0917 46.4605 42.0917L52.1403 6.77931C53.058 6.29802 53.7797 5.21512 53.9578 3.88711C54.2207 1.94858 53.2273 0.219505 51.7394 0.0189673Z" fill="#FFCA28"/>
</svg>
